<svg width="222" height="142" viewBox="0 0 222 142" fill="none" xmlns="http://www.w3.org/2000/svg">
<path fill-rule="evenodd" clip-rule="evenodd" d="M92.4214 24.5037C93.7139 23.3829 95.1172 22.3696 96.628 21.4684L96.6524 21.4538L96.677 21.4394C101.181 18.7955 106.174 17.5048 111.467 17.5048C113.021 17.5048 114.554 17.6175 116.058 17.8531V15.3328C116.058 8.32429 121.912 2.67073 129.097 2.67073C136.283 2.67073 142.137 8.32434 142.137 15.3328V53.7051C144.542 51.5521 147.754 50.239 151.275 50.239C158.706 50.239 164.759 56.0853 164.759 63.3315V68.9523C166.787 67.7121 169.188 66.9954 171.758 66.9954H175.283C176.986 66.9954 178.588 67.4258 179.978 68.1817C183.518 66.7083 187.338 66.0514 191.294 66.0514C196.9 66.0514 202.181 67.3872 206.932 70.1606C211.513 72.8344 215.182 76.466 217.848 80.9644C220.658 85.6104 222 90.7679 222 96.2386C222 101.653 220.689 106.771 217.981 111.427C215.321 116.002 211.639 119.696 207.015 122.395L206.974 122.419L206.934 122.442C202.162 125.154 196.847 126.426 191.211 126.426C189.296 126.426 187.413 126.266 185.571 125.94V128.123C185.571 135.369 179.519 141.215 172.088 141.215C167.963 141.215 164.262 139.414 161.786 136.571C159.544 139.844 155.713 142 151.364 142C144.453 142 138.851 136.556 138.851 129.84C138.851 126.776 140.017 123.976 141.942 121.838C140.678 120.661 139.65 119.247 138.933 117.669C138.321 118.306 137.674 118.909 136.994 119.48C134.29 121.753 131.167 123.447 127.745 124.629C124.221 125.866 120.475 126.426 116.597 126.426C110.744 126.426 105.235 125.153 100.347 122.345C97.0954 120.477 94.3112 118.122 92.0335 115.31C90.5703 121.157 85.1403 125.482 78.6902 125.482C71.1226 125.482 64.9591 119.528 64.9591 112.149V101.881H54.9188V112.189C54.9188 119.546 48.7738 125.482 41.2289 125.482C33.6841 125.482 27.5391 119.546 27.5391 112.189V71.2072C25.9831 70.8098 24.4558 70.3153 22.96 69.722C18.4256 67.9237 14.3927 65.3775 10.9343 62.0828C7.47734 58.7895 4.78243 54.9296 2.8579 50.5693L2.83064 50.5075L2.80447 50.4453C0.911846 45.9461 0 41.1665 0 36.185C0 31.1689 0.906734 26.3723 2.81982 21.8885C4.69671 17.4895 7.38118 13.5998 10.8583 10.2872C14.3257 6.98392 18.3743 4.45455 22.9295 2.70381C27.5596 0.874552 32.4913 0 37.6392 0C42.804 0 47.7512 0.880298 52.3944 2.72182C56.9167 4.51536 60.9401 7.05268 64.3923 10.3345C64.8456 10.759 65.2853 11.1936 65.7115 11.6381C67.5752 6.41171 72.6916 2.67073 78.6902 2.67073C86.2579 2.67073 92.4214 8.62461 92.4214 16.0036V24.5037Z" fill="#581183"/>
<path fill-rule="evenodd" clip-rule="evenodd" d="M25.9375 61.613C28.9435 62.8052 32.144 63.4993 35.5391 63.6954V111.344C35.5391 114.352 38.0539 116.791 41.1562 116.791C44.2585 116.791 46.7733 114.352 46.7733 111.344V93.1906H72.9591V111.304C72.9591 114.334 75.4924 116.791 78.6175 116.791C81.7426 116.791 84.2759 114.334 84.2759 111.304V15.1583C84.2759 12.1276 81.7426 9.67074 78.6175 9.67074C75.4924 9.67074 72.9591 12.1276 72.9591 15.1583V83.7503H46.7733V63.6305C46.7733 63.242 46.7314 62.8629 46.6516 62.4974C47.5176 62.2417 48.3656 61.9469 49.1955 61.613C52.7931 60.1862 55.9347 58.1936 58.6203 55.6351C61.3058 53.0767 63.4087 50.0754 64.9288 46.6313C66.4489 43.1381 67.209 39.3742 67.209 35.3397C67.209 31.2561 66.4489 27.4922 64.9288 24.0481C63.4594 20.6041 61.3818 17.6274 58.6963 15.1182C56.0107 12.5597 52.8691 10.5671 49.2715 9.14024C45.6738 7.71341 41.7722 7 37.5665 7C33.3608 7 29.4591 7.71341 25.8615 9.14024C22.2639 10.5179 19.1223 12.4859 16.4367 15.0444C13.7512 17.6028 11.6736 20.6041 10.2042 24.0481C8.73473 27.4922 8 31.2561 8 35.3397C8 39.3742 8.73473 43.1381 10.2042 46.6313C11.7243 50.0754 13.8272 53.0767 16.5127 55.6351C19.1983 58.1936 22.3399 60.1862 25.9375 61.613ZM45.2431 53.1997C42.9123 54.1345 40.3534 54.6019 37.5665 54.6019C34.8303 54.6019 32.2967 54.1345 29.9659 53.1997C27.635 52.2156 25.5828 50.8626 23.8093 49.1406C22.0865 47.4186 20.7437 45.3767 19.781 43.0151C18.8182 40.6534 18.3369 38.095 18.3369 35.3397C18.3369 32.5845 18.8182 30.0506 19.781 27.7382C20.7437 25.3765 22.0865 23.3347 23.8093 21.6127C25.5828 19.8414 27.635 18.4884 29.9659 17.5536C32.2967 16.6188 34.8303 16.1514 37.5665 16.1514C40.3534 16.1514 42.9123 16.6188 45.2431 17.5536C47.574 18.4884 49.6008 19.8414 51.3237 21.6127C53.0971 23.3347 54.4399 25.3765 55.352 27.7382C56.3148 30.0506 56.7961 32.5845 56.7961 35.3397C56.7961 38.095 56.3148 40.6534 55.352 43.0151C54.4399 45.3767 53.0971 47.4186 51.3237 49.1406C49.6008 50.8626 47.574 52.2156 45.2431 53.1997ZM100.778 63.6934C103.913 65.5138 107.476 66.424 111.47 66.424C114.453 66.424 117.208 65.8582 119.735 64.7266C121.683 63.8166 123.301 62.6143 124.588 61.1199V63.982C124.588 64.8416 125.307 65.5384 126.193 65.5384H129.29C131.886 65.5384 133.991 63.4971 133.991 60.979V14.4875C133.991 11.8273 131.768 9.67074 129.024 9.67074C126.281 9.67074 124.058 11.8273 124.058 14.4875V29.4469C122.863 28.1864 121.422 27.154 119.735 26.3499C117.309 25.1198 114.529 24.5048 111.394 24.5048C107.502 24.5048 103.963 25.4396 100.778 27.3093C97.644 29.1789 95.1669 31.6882 93.347 34.837C91.5272 37.9859 90.6172 41.5283 90.6172 45.4644C90.6172 49.3513 91.5272 52.8938 93.347 56.0918C95.1669 59.2899 97.644 61.8237 100.778 63.6934ZM118.522 56.018C116.803 57.0512 114.807 57.5678 112.532 57.5678C110.307 57.5678 108.311 57.0512 106.541 56.018C104.772 54.9848 103.382 53.558 102.371 51.7375C101.41 49.9171 100.93 47.8261 100.93 45.4644C100.93 43.1028 101.41 41.0363 102.371 39.2651C103.382 37.4447 104.772 36.0178 106.541 34.9846C108.311 33.9022 110.307 33.361 112.532 33.361C114.807 33.361 116.803 33.8776 118.522 34.9108C120.241 35.944 121.581 37.3955 122.541 39.2651C123.552 41.0855 124.058 43.152 124.058 45.4644C124.058 47.8261 123.552 49.9171 122.541 51.7375C121.581 53.558 120.241 54.9848 118.522 56.018ZM104.382 114.746C107.851 116.739 111.899 117.735 116.525 117.735C119.609 117.735 122.417 117.289 124.95 116.398C127.539 115.506 129.769 114.274 131.641 112.7C132.187 112.242 132.69 111.764 133.152 111.265C134.988 109.281 133.831 106.366 131.354 105.208C128.91 104.066 126.019 105.089 123.809 106.616C123.514 106.82 123.206 107.012 122.885 107.194C121.178 108.19 119.086 108.688 116.607 108.688C114.129 108.688 111.926 108.138 109.999 107.036C108.127 105.935 106.695 104.388 105.704 102.395C105.078 101.029 104.711 99.5337 104.601 97.9102C105.137 98.1625 105.738 98.304 106.373 98.304H134.854C136.15 98.304 137.336 97.5127 137.424 96.2587C137.534 95.472 137.589 94.7115 137.589 93.9773C137.589 91.0927 137.093 88.418 136.102 85.9531C135.111 83.4357 133.679 81.2067 131.807 79.2662C129.934 77.3257 127.649 75.8048 124.95 74.7035C122.307 73.6021 119.223 73.0514 115.699 73.0514C111.513 73.0514 107.714 74.0216 104.299 75.9621C100.94 77.9026 98.2691 80.5511 96.2866 83.9077C94.3591 87.2118 93.3954 91.0141 93.3954 95.3146C93.3954 99.4578 94.3591 103.234 96.2866 106.643C98.214 110.052 100.912 112.753 104.382 114.746ZM104.8 90.7437C104.976 89.7232 105.25 88.7819 105.621 87.9198C106.557 85.8219 107.906 84.2486 109.669 83.1997C111.431 82.0983 113.441 81.5476 115.699 81.5476C118.067 81.5476 120.077 82.0983 121.729 83.1997C123.436 84.301 124.648 85.7957 125.363 87.6838C125.716 88.5468 125.936 89.4646 126.024 90.4372H106.373C105.815 90.4372 105.284 90.5463 104.8 90.7437ZM151.203 116.791C148.214 116.791 145.792 114.442 145.792 111.544V62.4862C145.792 59.5883 148.214 57.239 151.203 57.239C154.191 57.239 156.613 59.5883 156.613 62.4862V111.544C156.613 114.442 154.191 116.791 151.203 116.791ZM166.605 127.278C166.605 130.176 169.027 132.525 172.015 132.525C175.003 132.525 177.426 130.176 177.426 127.278V112.663C178.745 113.989 180.314 115.077 182.134 115.926C184.888 117.132 187.889 117.735 191.138 117.735C195.489 117.735 199.371 116.765 202.786 114.824C206.2 112.831 208.898 110.131 210.881 106.722C212.863 103.313 213.855 99.5365 213.855 95.3933C213.855 91.1976 212.836 87.4215 210.798 84.065C208.816 80.7085 206.117 78.0338 202.703 76.0408C199.289 74.0479 195.461 73.0514 191.221 73.0514C187.751 73.0514 184.695 73.707 182.052 75.0181C179.937 76.0251 178.175 77.3677 176.765 79.0459V75.5033C176.765 74.6705 176.069 73.9954 175.21 73.9954H171.685C168.879 73.9954 166.605 76.2012 166.605 78.9222V127.278ZM196.508 106.643C194.58 107.744 192.377 108.295 189.899 108.295C187.531 108.295 185.383 107.744 183.456 106.643C181.584 105.542 180.097 104.021 178.995 102.08C177.949 100.14 177.426 97.9107 177.426 95.3933C177.426 92.9283 177.949 90.7256 178.995 88.7851C180.097 86.7922 181.584 85.245 183.456 84.1437C185.383 83.0423 187.531 82.4917 189.899 82.4917C192.377 82.4917 194.58 83.0685 196.508 84.2224C198.435 85.3237 199.922 86.8446 200.968 88.7851C202.07 90.6732 202.62 92.8759 202.62 95.3933C202.62 97.9107 202.07 100.14 200.968 102.08C199.922 104.021 198.435 105.542 196.508 106.643ZM151.695 134.878C155.261 134.878 158.153 132.068 158.153 128.602C158.153 125.136 155.261 122.326 151.695 122.326C148.128 122.326 145.236 125.136 145.236 128.602C145.236 132.068 148.128 134.878 151.695 134.878Z" fill="white"/>
</svg>
